<svg xmlns="http://www.w3.org/2000/svg" width="38" height="41" viewBox="0 0 38 41" fill="none">
  <rect width="38" height="41" transform="matrix(-1 0 0 1 38 0)" fill="white"/>
  <path d="M25.2899 31.823C25.2899 31.9832 25.4661 32.1113 25.6883 32.1113C25.9411 32.1354 26.1173 32.0072 26.1173 31.823C26.1173 31.6629 25.9411 31.5348 25.719 31.5348C25.4891 31.5107 25.2899 31.6389 25.2899 31.823ZM27.6726 31.4627C27.7262 31.6229 27.573 31.807 27.3431 31.8551C27.144 31.9352 26.9141 31.8551 26.8681 31.6949C26.8222 31.5348 26.9677 31.3506 27.1976 31.2785C27.3968 31.2225 27.619 31.3025 27.6726 31.4627ZM24.2863 31.3266C24.5085 31.3826 24.6617 31.5348 24.6387 31.7189C24.6157 31.8791 24.4165 31.9832 24.1867 31.9272C23.9645 31.8711 23.8113 31.7189 23.8343 31.5588C23.8573 31.4066 24.0641 31.3025 24.2863 31.3266ZM19.2452 0.640625C29.8714 0.640625 38 9.07285 38 20.1797C38 29.0604 32.6524 36.6598 25.0141 39.3344C24.0335 39.5186 23.6887 38.8859 23.6887 38.3654C23.6887 37.8689 23.7117 35.1303 23.7117 33.4486C23.7117 33.4486 29.0746 34.6498 30.2008 31.0623C30.2008 31.0623 31.0742 28.732 32.3306 28.1314C32.3306 28.1314 34.0851 26.8742 32.2081 26.8982C32.2081 26.8982 30.3004 27.0584 29.2508 28.9643C27.573 32.0553 24.7613 31.1664 23.6657 30.6379C23.4895 29.3566 22.9915 28.4678 22.4399 27.9393C26.7226 27.4428 31.0435 26.7941 31.0435 19.0906C31.0435 16.8885 30.4613 15.7834 29.2355 14.374C29.4347 13.8535 30.0859 11.7074 29.0363 8.93672C27.4351 8.41621 23.75 11.0988 23.75 11.0988C22.2177 10.6504 20.5706 10.4182 18.9387 10.4182C17.3069 10.4182 15.6597 10.6504 14.1274 11.0988C14.1274 11.0988 10.4423 8.4082 8.84113 8.93672C7.79153 11.7154 8.44274 13.8535 8.64193 14.374C7.41613 15.7914 6.66532 16.8965 6.66532 19.0906C6.66532 26.8182 11.1778 27.4348 15.4605 27.9393C14.7556 28.5719 14.1581 29.773 14.1581 31.6549C14.1581 34.3535 14.181 37.6928 14.181 38.3494C14.181 38.8699 13.8286 39.5025 12.8556 39.3184C5.19435 36.6598 -1.54972e-06 29.0604 -1.54972e-06 20.1797C-1.54972e-06 9.07285 8.61895 0.640625 19.2452 0.640625ZM30.5532 28.2596C30.6528 28.3396 30.6298 28.5238 30.4996 28.676C30.377 28.8041 30.2008 28.8602 30.1012 28.7561C30.0016 28.676 30.0246 28.4918 30.1548 28.3396C30.2774 28.2115 30.4536 28.1555 30.5532 28.2596ZM31.3806 27.6109C31.4343 27.715 31.3577 27.8432 31.2044 27.9232C31.0819 28.0033 30.9286 27.9793 30.875 27.8672C30.8214 27.7631 30.898 27.635 31.0512 27.5549C31.2044 27.5068 31.327 27.5309 31.3806 27.6109ZM28.8984 30.4617C29.021 30.5658 28.975 30.8061 28.7988 30.9582C28.6226 31.1424 28.4004 31.1664 28.3008 31.0383C28.2012 30.9342 28.2472 30.6939 28.4004 30.5418C28.569 30.3576 28.7988 30.3336 28.8984 30.4617ZM29.7718 29.2846C29.8944 29.3647 29.8944 29.5729 29.7718 29.757C29.6492 29.9412 29.4423 30.0213 29.3427 29.9412C29.2202 29.8371 29.2202 29.6289 29.3427 29.4447C29.45 29.2605 29.6492 29.1805 29.7718 29.2846Z" fill="#FD8A8A"/>
</svg>