<svg xmlns="http://www.w3.org/2000/svg" width="35" height="41" viewBox="0 0 35 41" fill="none">
  <path d="M31.25 2.5625H3.75C1.67969 2.5625 0 4.28418 0 6.40625V34.5938C0 36.7158 1.67969 38.4375 3.75 38.4375H31.25C33.3203 38.4375 35 36.7158 35 34.5938V6.40625C35 4.28418 33.3203 2.5625 31.25 2.5625ZM21.6641 33.2885C21.0078 33.4086 20.7656 32.9922 20.7656 32.6479C20.7656 32.2154 20.7812 30.0053 20.7812 28.2195C20.7812 26.9703 20.375 26.1775 19.8984 25.7611C22.7891 25.4328 25.8359 25.0244 25.8359 19.9074C25.8359 18.45 25.3281 17.7213 24.5 16.7844C24.6328 16.44 25.0781 15.0227 24.3672 13.1809C23.2812 12.8365 20.7969 14.6143 20.7969 14.6143C19.7656 14.318 18.6484 14.1658 17.5469 14.1658C16.4453 14.1658 15.3281 14.318 14.2969 14.6143C14.2969 14.6143 11.8125 12.8365 10.7266 13.1809C10.0156 15.0146 10.4531 16.432 10.5938 16.7844C9.76563 17.7213 9.375 18.45 9.375 19.9074C9.375 25.0004 12.2891 25.4328 15.1797 25.7611C14.8047 26.1055 14.4687 26.698 14.3516 27.5469C13.6094 27.8912 11.7109 28.4838 10.5781 26.4338C9.86719 25.1686 8.58594 25.0645 8.58594 25.0645C7.32031 25.0484 8.5 25.8813 8.5 25.8813C9.34375 26.2816 9.9375 27.8191 9.9375 27.8191C10.6953 30.1975 14.3203 29.3967 14.3203 29.3967C14.3203 30.5098 14.3359 32.3195 14.3359 32.6479C14.3359 32.9922 14.1016 33.4086 13.4375 33.2885C8.28125 31.5188 4.67187 26.4898 4.67187 20.6121C4.67187 13.2609 10.1562 7.67949 17.3281 7.67949C24.5 7.67949 30.3125 13.2609 30.3125 20.6121C30.3203 26.4898 26.8203 31.5268 21.6641 33.2885ZM14 28.3957C13.8516 28.4277 13.7109 28.3637 13.6953 28.2596C13.6797 28.1395 13.7813 28.0354 13.9297 28.0033C14.0781 27.9873 14.2187 28.0514 14.2344 28.1555C14.2578 28.2596 14.1562 28.3637 14 28.3957ZM13.2578 28.3236C13.2578 28.4277 13.1406 28.5158 12.9844 28.5158C12.8125 28.5318 12.6953 28.4438 12.6953 28.3236C12.6953 28.2195 12.8125 28.1314 12.9688 28.1314C13.1172 28.1154 13.2578 28.2035 13.2578 28.3236ZM12.1875 28.2355C12.1562 28.3396 12 28.3877 11.8672 28.3396C11.7187 28.3076 11.6172 28.1875 11.6484 28.0834C11.6797 27.9793 11.8359 27.9313 11.9687 27.9633C12.125 28.0113 12.2266 28.1314 12.1875 28.2355ZM11.2266 27.8031C11.1562 27.8912 11.0078 27.8752 10.8906 27.7551C10.7734 27.651 10.7422 27.4988 10.8203 27.4268C10.8906 27.3387 11.0391 27.3547 11.1563 27.4748C11.2578 27.5789 11.2969 27.7391 11.2266 27.8031ZM10.5156 27.0744C10.4453 27.1225 10.3125 27.0744 10.2266 26.9543C10.1406 26.8342 10.1406 26.698 10.2266 26.642C10.3125 26.5699 10.4453 26.626 10.5156 26.7461C10.6016 26.8662 10.6016 27.0104 10.5156 27.0744ZM10.0078 26.2977C9.9375 26.3697 9.82031 26.3297 9.73437 26.2496C9.64844 26.1455 9.63281 26.0254 9.70312 25.9693C9.77344 25.8973 9.89062 25.9373 9.97656 26.0174C10.0625 26.1215 10.0781 26.2416 10.0078 26.2977ZM9.48438 25.7051C9.45313 25.7771 9.35156 25.7932 9.26562 25.7371C9.16406 25.6891 9.11719 25.601 9.14844 25.5289C9.17969 25.4809 9.26563 25.4568 9.36719 25.4969C9.46875 25.5529 9.51563 25.641 9.48438 25.7051Z" fill="#6F6CF6"/>
</svg>