<svg xmlns="http://www.w3.org/2000/svg" width="35" height="41" viewBox="0 0 35 41" fill="none">
  <path d="M32.5 2.5625H2.49219C1.11719 2.5625 0 3.72363 0 5.14902V35.851C0 37.2764 1.11719 38.4375 2.49219 38.4375H32.5C33.875 38.4375 35 37.2764 35 35.851V5.14902C35 3.72363 33.875 2.5625 32.5 2.5625ZM10.5781 33.3125H5.39062V16.1918H10.5859V33.3125H10.5781ZM7.98438 13.8535C6.32031 13.8535 4.97656 12.4682 4.97656 10.7705C4.97656 9.07285 6.32031 7.6875 7.98438 7.6875C9.64062 7.6875 10.9922 9.07285 10.9922 10.7705C10.9922 12.4762 9.64844 13.8535 7.98438 13.8535ZM30.0234 33.3125H24.8359V24.9844C24.8359 22.9984 24.7969 20.4439 22.1406 20.4439C19.4375 20.4439 19.0234 22.6061 19.0234 24.8402V33.3125H13.8359V16.1918H18.8125V18.5301H18.8828C19.5781 17.1848 21.2734 15.7674 23.7969 15.7674C29.0469 15.7674 30.0234 19.3148 30.0234 23.9273V33.3125Z" fill="#6F6CF6"/>
</svg>