<svg width="36" height="41" viewBox="0 0 36 41" fill="none" xmlns="http://www.w3.org/2000/svg">
<g clip-path="url(#clip0_219_13)">
<path d="M18 16.2286C18.8477 16.2289 19.6762 16.4797 20.3809 16.9493C21.0855 17.4188 21.6347 18.086 21.9588 18.8665C22.283 19.647 22.3677 20.5058 22.2021 21.3343C22.0365 22.1627 21.6282 22.9237 21.0287 23.5209C20.4292 24.1181 19.6654 24.5247 18.834 24.6894C18.0026 24.8541 17.1409 24.7694 16.3577 24.4461C15.5746 24.1227 14.9053 23.5753 14.4344 22.8729C13.9635 22.1705 13.7121 21.3447 13.7121 20.5C13.713 19.3671 14.1651 18.281 14.9691 17.4801C15.7731 16.6792 16.8632 16.2291 18 16.2286ZM7.97866 12.9454C8.19687 12.3944 8.52637 11.8939 8.94673 11.475C9.36709 11.0561 9.86934 10.7277 10.4223 10.5103C12.1098 9.84641 16.1277 9.99535 18 9.99535C19.8723 9.99535 23.8862 9.8408 25.5785 10.5103C26.1315 10.7277 26.6337 11.0561 27.0541 11.475C27.4744 11.8939 27.8039 12.3944 28.0221 12.9454C28.6875 14.6271 28.5388 18.635 28.5388 20.4992C28.5388 22.3634 28.6875 26.3665 28.0189 28.0538C27.8007 28.6048 27.4712 29.1053 27.0509 29.5242C26.6305 29.9431 26.1283 30.2715 25.5753 30.4889C23.8878 31.1528 19.8699 31.0038 17.9968 31.0038C16.1237 31.0038 12.1114 31.1584 10.4191 30.4889C9.86612 30.2715 9.36387 29.9431 8.94351 29.5242C8.52315 29.1053 8.19365 28.6048 7.97545 28.0538C7.30446 26.3721 7.45875 22.3642 7.45875 20.5C7.45875 18.6358 7.30446 14.6335 7.97545 12.9462L7.97866 12.9454ZM18 27.0664C19.3032 27.0664 20.5772 26.6813 21.6608 25.9598C22.7444 25.2382 23.589 24.2127 24.0877 23.0129C24.5864 21.813 24.7169 20.4927 24.4627 19.219C24.2084 17.9452 23.5809 16.7752 22.6593 15.8568C21.7378 14.9385 20.5637 14.3131 19.2855 14.0598C18.0073 13.8064 16.6824 13.9364 15.4784 14.4334C14.2744 14.9304 13.2452 15.7721 12.5212 16.8519C11.7972 17.9317 11.4107 19.2013 11.4107 20.5C11.4097 21.3626 11.5794 22.217 11.9101 23.0141C12.2409 23.8112 12.7262 24.5355 13.3383 25.1455C13.9504 25.7555 14.6772 26.2391 15.4771 26.5687C16.2771 26.8983 17.1344 27.0675 18 27.0664ZM11.1391 15.1908C11.4433 15.191 11.7408 15.1012 11.9938 14.9329C12.2468 14.7646 12.4441 14.5253 12.5606 14.2452C12.6772 13.9652 12.7077 13.657 12.6485 13.3596C12.5892 13.0622 12.4428 12.7891 12.2278 12.5746C12.0127 12.3602 11.7386 12.2141 11.4403 12.1549C11.1419 12.0957 10.8326 12.126 10.5515 12.242C10.2704 12.358 10.0302 12.5545 9.86114 12.8065C9.6921 13.0586 9.60188 13.355 9.60188 13.6581C9.60103 13.8595 9.64008 14.059 9.71678 14.2452C9.79348 14.4315 9.90633 14.6008 10.0489 14.7435C10.1914 14.8862 10.3608 14.9994 10.5473 15.0768C10.7338 15.1541 10.9339 15.1939 11.1359 15.194L11.1391 15.1908ZM3.85714 2.5625H32.1429C33.1658 2.5625 34.1469 2.96747 34.8703 3.68831C35.5936 4.40915 36 5.38682 36 6.40625V34.5938C36 35.6132 35.5936 36.5909 34.8703 37.3117C34.1469 38.0325 33.1658 38.4375 32.1429 38.4375H3.85714C2.83416 38.4375 1.85308 38.0325 1.12973 37.3117C0.406376 36.5909 0 35.6132 0 34.5938V6.40625C0 5.38682 0.406376 4.40915 1.12973 3.68831C1.85308 2.96747 2.83416 2.5625 3.85714 2.5625ZM5.23286 25.7852C5.33652 27.8376 5.80661 29.6561 7.31009 31.1504C8.81357 32.6446 10.6369 33.1227 12.694 33.2204C14.8162 33.3397 21.1789 33.3397 23.3012 33.2204C25.3607 33.1171 27.1792 32.6479 28.6851 31.1504C30.191 29.6529 30.6643 27.8336 30.7623 25.7852C30.8821 23.6695 30.8821 17.3281 30.7623 15.2148C30.6587 13.1624 30.1942 11.3439 28.6851 9.84961C27.176 8.35535 25.3527 7.88289 23.3012 7.7852C21.1789 7.66588 14.8162 7.66588 12.694 7.7852C10.6345 7.8885 8.81036 8.35775 7.31009 9.85521C5.80982 11.3527 5.33089 13.1721 5.23286 15.2245C5.11312 17.3321 5.11312 23.6679 5.23286 25.7852Z" fill="#F2D23C"/>
</g>
<defs>
<clipPath id="clip0_219_13">
<rect width="36" height="41" fill="white" transform="matrix(-1 0 0 1 36 0)"/>
</clipPath>
</defs>
</svg>
